<?xml version="1.0" encoding="UTF-8" standalone="no"?><!DOCTYPE svg PUBLIC "-//W3C//DTD SVG 1.1//EN" "http://www.w3.org/Graphics/SVG/1.1/DTD/svg11.dtd"><svg width="100%" height="100%" viewBox="0 0 1024 1024" version="1.1" xmlns="http://www.w3.org/2000/svg" xmlns:xlink="http://www.w3.org/1999/xlink" xml:space="preserve" xmlns:serif="http://www.serif.com/" style="fill-rule:evenodd;clip-rule:evenodd;stroke-linejoin:round;stroke-miterlimit:2;"><g id="Icon-Artwork" serif:id="Icon Artwork"><g id="_1024" serif:id="1024"><g><rect x="-0" y="1.5" width="1024" height="1024" style="fill:#fedf00;"/><path d="M720,705.5c-0,-8.831 7.169,-16 16,-16c8.831,0 16,7.169 16,16c-0,132.46 -107.541,240 -240,240c-132.46,0 -240,-107.54 -240,-240c-0,-8.831 7.169,-16 16,-16c8.831,0 16,7.169 16,16c-0,114.798 93.202,208 208,208c114.798,0 208,-93.202 208,-208Z" style="fill:#fff;"/><path d="M576,725.851l-60.288,201.196c-0.491,1.64 -2,2.763 -3.712,2.763c-1.712,0 -3.221,-1.123 -3.712,-2.763l-60.288,-201.196l-0,-724.351l128,0l-0,724.351Z" style="fill:#fff;"/><path d="M526.483,891.103l-10.651,35.545c-0.508,1.693 -2.065,2.852 -3.832,2.852c-1.767,0 -3.325,-1.159 -3.832,-2.852l-8.734,-29.148l27.049,-6.397Z" style="fill:#080605;"/><path d="M576,713.5c4.415,-0 8,3.585 8,8c-0,4.415 -3.585,8 -8,8c-13.246,-0 -24,-10.754 -24,-24c-0,-4.415 -3.585,-8 -8,-8c-4.415,-0 -8,3.585 -8,8c-0,13.246 -10.754,24 -24,24c-13.246,0 -24,-10.754 -24,-24c-0,-4.415 -3.585,-8 -8,-8c-4.415,-0 -8,3.585 -8,8c-0,13.246 -10.754,24 -24,24c-4.415,0 -8,-3.585 -8,-8c-0,-4.415 3.585,-8 8,-8c4.415,0 8,-3.585 8,-8c-0,-13.246 10.754,-24 24,-24c13.246,-0 24,10.754 24,24c-0,4.415 3.585,8 8,8c4.415,0 8,-3.585 8,-8c-0,-13.246 10.754,-24 24,-24c13.246,-0 24,10.754 24,24c-0,4.415 3.585,8 8,8Z" style="fill:#fedf00;"/><rect x="536" y="1.5" width="16" height="688" style="fill:#f2dd0d;"/><rect x="472" y="1.5" width="16" height="688" style="fill:#f2dd0d;"/><circle cx="704" cy="321.5" r="96" style="fill:#fff;"/><circle cx="704" cy="353.5" r="64" style="fill:#2a2a2a;"/><circle cx="320" cy="321.5" r="96" style="fill:#fff;"/><circle cx="320" cy="353.5" r="64" style="fill:#2a2a2a;"/></g></g><g id="_180" serif:id="180"></g><g id="_167" serif:id="167"></g><g id="_152" serif:id="152"></g><g id="_120" serif:id="120"></g><g id="_87" serif:id="87"></g><g id="_80" serif:id="80"></g><g id="_76" serif:id="76"></g><g id="_60" serif:id="60"></g><g id="_58" serif:id="58"></g><g id="_40" serif:id="40"></g><g id="_29" serif:id="29"></g><g id="_20" serif:id="20"></g></g></svg>